<?xml version="1.0" encoding="UTF-8" standalone="no"?>
<svg
   xmlns:dc="http://purl.org/dc/elements/1.1/"
   xmlns:cc="http://creativecommons.org/ns#"
   xmlns:rdf="http://www.w3.org/1999/02/22-rdf-syntax-ns#"
   xmlns:svg="http://www.w3.org/2000/svg"
   xmlns="http://www.w3.org/2000/svg"
   xmlns:sodipodi="http://sodipodi.sourceforge.net/DTD/sodipodi-0.dtd"
   xmlns:inkscape="http://www.inkscape.org/namespaces/inkscape"
   width="570"
   height="350"
   id="svg11350"
   version="1.1"
   inkscape:version="0.91 r13725"
   sodipodi:docname="ApplicationService.svg">
  <metadata
     id="metadata11361">
    <rdf:RDF>
      <cc:Work
         rdf:about="">
        <dc:format>image/svg+xml</dc:format>
        <dc:type
           rdf:resource="http://purl.org/dc/dcmitype/StillImage" />
        <dc:title />
      </cc:Work>
    </rdf:RDF>
  </metadata>
  <defs
     id="defs11359" />
  <sodipodi:namedview
     pagecolor="#ffffff"
     bordercolor="#666666"
     borderopacity="1"
     objecttolerance="10"
     gridtolerance="10"
     guidetolerance="10"
     inkscape:pageopacity="0"
     inkscape:pageshadow="2"
     inkscape:window-width="1366"
     inkscape:window-height="706"
     id="namedview11357"
     showgrid="false"
     inkscape:zoom="1"
     inkscape:cx="388.5"
     inkscape:cy="101.5"
     inkscape:window-x="-8"
     inkscape:window-y="-8"
     inkscape:window-maximized="1"
     inkscape:current-layer="svg11350" />
  <!-- Created with SVG-edit - http://svg-edit.googlecode.com/ -->
  <g
     id="g11352"
     transform="matrix(0.97240443,0,0,0.97240443,3.0012705,75.550162)"
     style="stroke-width:10.35714436;stroke-miterlimit:4;stroke-dasharray:none">
    <title
       id="title11354">Layer 1</title>
    <path
       d="m 96.768211,4.998325 386.880989,0 0,0 c 50.68283,0 91.77158,43.205357 91.77158,96.503295 0,53.28903 -41.08875,96.49589 -91.77158,96.49589 l -386.880989,0 0,0 c -50.680702,0 -91.766739,-43.20686 -91.766739,-96.49589 0,-53.297938 41.086037,-96.503295 91.766739,-96.503295 z"
       id="svg_1"
       inkscape:connector-curvature="0"
       style="fill:#b5ffff;stroke:#000000;stroke-width:10.35714436;stroke-miterlimit:4;stroke-dasharray:none" />
  </g>
  <path
     style="fill:none;fill-rule:evenodd;stroke:none;stroke-width:1px;stroke-linecap:butt;stroke-linejoin:miter;stroke-opacity:1"
     d="m 28,94 52,-25 415,1 50,32 23,57 -2,46 -22,40 -54,35 L 75,279 24,246 3,205 4,133 28,94"
     id="PapyrusPath"
     inkscape:connector-curvature="0"
     sodipodi:nodetypes="ccccccccccccc"
     inkscape:label="#path4143" />
</svg>
