<?xml version="1.0" encoding="UTF-8" standalone="no"?>
<svg
   xmlns:dc="http://purl.org/dc/elements/1.1/"
   xmlns:cc="http://creativecommons.org/ns#"
   xmlns:rdf="http://www.w3.org/1999/02/22-rdf-syntax-ns#"
   xmlns:svg="http://www.w3.org/2000/svg"
   xmlns="http://www.w3.org/2000/svg"
   xmlns:sodipodi="http://sodipodi.sourceforge.net/DTD/sodipodi-0.dtd"
   xmlns:inkscape="http://www.inkscape.org/namespaces/inkscape"
   width="350"
   height="350"
   id="svg12483"
   version="1.1"
   inkscape:version="0.91 r13725"
   sodipodi:docname="BusinessEvent.svg">
  <metadata
     id="metadata12494">
    <rdf:RDF>
      <cc:Work
         rdf:about="">
        <dc:format>image/svg+xml</dc:format>
        <dc:type
           rdf:resource="http://purl.org/dc/dcmitype/StillImage" />
        <dc:title />
      </cc:Work>
    </rdf:RDF>
  </metadata>
  <defs
     id="defs12492" />
  <sodipodi:namedview
     pagecolor="#ffffff"
     bordercolor="#666666"
     borderopacity="1"
     objecttolerance="10"
     gridtolerance="10"
     guidetolerance="10"
     inkscape:pageopacity="0"
     inkscape:pageshadow="2"
     inkscape:window-width="1366"
     inkscape:window-height="706"
     id="namedview12490"
     showgrid="false"
     inkscape:zoom="1"
     inkscape:cx="92.5"
     inkscape:cy="137.5"
     inkscape:window-x="-8"
     inkscape:window-y="-8"
     inkscape:window-maximized="1"
     inkscape:current-layer="svg12483" />
  <!-- Created with SVG-edit - http://svg-edit.googlecode.com/ -->
  <g
     id="g12485"
     transform="matrix(0.58149407,0,0,0.58149407,4.0002884,94.969914)"
     style="stroke-width:16.95094872;stroke-miterlimit:4;stroke-dasharray:none">
    <title
       id="title12487">Layer 1</title>
    <path
       d="m 100.89278,4.9981 479.45561,0 c -52.95801,0 -95.89057,59.321388 -95.89057,132.49796 0,73.17641 42.93256,132.49771 95.89057,132.49771 l -479.45561,0 0,0 c -52.961079,0 -95.891201,-59.3213 -95.891201,-132.49771 0,-73.176564 42.930115,-132.49796 95.891201,-132.49796 z"
       id="svg_1"
       transform="matrix(-1,0,0,-1,585.348,274.992)"
       inkscape:connector-curvature="0"
       style="fill:#ffffb5;stroke:#000000;stroke-width:16.95094872;stroke-linecap:round;stroke-linejoin:round;stroke-miterlimit:4;stroke-dasharray:none" />
  </g>
  <path
     style="fill:none;fill-rule:evenodd;stroke:none;stroke-width:1px;stroke-linecap:butt;stroke-linejoin:miter;stroke-opacity:1"
     d="m 3,92 295,1 36,24 15,56 -9,44 -18,31 -24,9 -295,1 1,-12 21,-8 13,-14 12,-24 3,-35 L 46,135 26,111 2,105 3,92"
     id="PapyrusPath"
     inkscape:connector-curvature="0"
     inkscape:label="#path4143"
     sodipodi:nodetypes="ccccccccccccccccc" />
</svg>
