<?xml version="1.0" encoding="UTF-8" standalone="no"?>
<svg
   xmlns:dc="http://purl.org/dc/elements/1.1/"
   xmlns:cc="http://creativecommons.org/ns#"
   xmlns:rdf="http://www.w3.org/1999/02/22-rdf-syntax-ns#"
   xmlns:svg="http://www.w3.org/2000/svg"
   xmlns="http://www.w3.org/2000/svg"
   xmlns:sodipodi="http://sodipodi.sourceforge.net/DTD/sodipodi-0.dtd"
   xmlns:inkscape="http://www.inkscape.org/namespaces/inkscape"
   width="350"
   height="350"
   id="svg5802"
   version="1.1"
   inkscape:version="0.91 r13725"
   sodipodi:docname="BusinessActor.svg">
  <metadata
     id="metadata5814">
    <rdf:RDF>
      <cc:Work
         rdf:about="">
        <dc:format>image/svg+xml</dc:format>
        <dc:type
           rdf:resource="http://purl.org/dc/dcmitype/StillImage" />
        <dc:title />
      </cc:Work>
    </rdf:RDF>
  </metadata>
  <defs
     id="defs5812" />
  <sodipodi:namedview
     pagecolor="#ffffff"
     bordercolor="#666666"
     borderopacity="1"
     objecttolerance="10"
     gridtolerance="10"
     guidetolerance="10"
     inkscape:pageopacity="0"
     inkscape:pageshadow="2"
     inkscape:window-width="1366"
     inkscape:window-height="706"
     id="namedview5810"
     showgrid="false"
     inkscape:zoom="1"
     inkscape:cx="-51.5"
     inkscape:cy="194.05596"
     inkscape:window-x="-8"
     inkscape:window-y="-8"
     inkscape:window-maximized="1"
     inkscape:current-layer="svg5802" />
  <!-- Created with SVG-edit - http://svg-edit.googlecode.com/ -->
  <g
     id="g6914"
     transform="matrix(0.98342647,0,0,0.98342647,2.9743665,3.8368533)"
     style="stroke:#000000;stroke-opacity:1">
    <path
       d="m 75.116009,129.34057 207.372351,0 M 177.85865,247.97822 283.83201,345.57133 M 177.85865,246.72363 76.502767,343.14117 M 177.18018,90.03834 l 0,156.68529 M 222.18733,47.725972 c 0,23.012136 -20.15039,41.668847 -45.00715,41.668847 -24.85362,0 -45.00303,-18.656711 -45.00303,-41.668847 0,-23.013556 20.14941,-41.6689513 45.00303,-41.6689513 24.85676,0 45.00715,18.6553943 45.00715,41.6689513 z"
       id="svg_3"
       inkscape:connector-curvature="0"
       style="fill:#ffffb5;stroke:#000000;stroke-width:9.71104717;stroke-linecap:round;stroke-linejoin:round;stroke-miterlimit:4;stroke-dasharray:none;stroke-opacity:1" />
    <rect
       id="svg_1"
       height="362.02316"
       width="214.37776"
       y="-9.8438082"
       x="72.387505"
       style="fill:#000000;fill-opacity:0;stroke:#000000;stroke-width:0;stroke-linecap:round;stroke-linejoin:round;stroke-dasharray:none;stroke-opacity:1" />
  </g>
  <path
     style="fill:none;fill-rule:evenodd;stroke:none;stroke-width:0.95122272px;stroke-linecap:butt;stroke-linejoin:miter;stroke-opacity:1"
     d="m 119.32848,37.038481 33.02323,-35.0624361 49.43715,2 31.96741,38.4396491 -4,34.162853 9.72092,24.993243 37.3023,5.5848 21.38603,10.23882 0,23.27004 -17.49765,12.10041 -50.54881,14.89282 2.91629,77.25651 65.13017,67.01769 4.86046,25.13164 -15.55347,13.96202 -26.24649,-4.65401 -78.73946,-40.02445 -85.544107,37.23205 -32.07904,2.7924 -3.888368,-8.37722 0.972091,-21.40842 63.185984,-75.39491 0,-72.6025 -40.827865,-18.61602 -18.46975,-13.96202 0.972092,-19.54683 16.525566,-8.37721 35.218577,-7.10042 6.80464,-20.823624 -6.0279,-43.124875"
     id="PapyrusPath"
     inkscape:connector-curvature="0"
     inkscape:label="#path5254"
     sodipodi:nodetypes="cccccccccccccccccccccccccccccc" />
</svg>
