<?xml version="1.0" encoding="UTF-8" standalone="no"?>
<svg
   xmlns:dc="http://purl.org/dc/elements/1.1/"
   xmlns:cc="http://creativecommons.org/ns#"
   xmlns:rdf="http://www.w3.org/1999/02/22-rdf-syntax-ns#"
   xmlns:svg="http://www.w3.org/2000/svg"
   xmlns="http://www.w3.org/2000/svg"
   xmlns:sodipodi="http://sodipodi.sourceforge.net/DTD/sodipodi-0.dtd"
   xmlns:inkscape="http://www.inkscape.org/namespaces/inkscape"
   width="570"
   height="350"
   id="svg4136"
   version="1.1"
   inkscape:version="0.91 r13725"
   sodipodi:docname="BusinessService.svg">
  <metadata
     id="metadata4147">
    <rdf:RDF>
      <cc:Work
         rdf:about="">
        <dc:format>image/svg+xml</dc:format>
        <dc:type
           rdf:resource="http://purl.org/dc/dcmitype/StillImage" />
        <dc:title />
      </cc:Work>
    </rdf:RDF>
  </metadata>
  <defs
     id="defs4145" />
  <sodipodi:namedview
     pagecolor="#ffffff"
     bordercolor="#666666"
     borderopacity="1"
     objecttolerance="10"
     gridtolerance="10"
     guidetolerance="10"
     inkscape:pageopacity="0"
     inkscape:pageshadow="2"
     inkscape:window-width="1366"
     inkscape:window-height="706"
     id="namedview4143"
     showgrid="false"
     inkscape:zoom="1"
     inkscape:cx="308.02652"
     inkscape:cy="101.5"
     inkscape:window-x="-8"
     inkscape:window-y="-8"
     inkscape:window-maximized="1"
     inkscape:current-layer="svg4136" />
  <!-- Created with SVG-edit - http://svg-edit.googlecode.com/ -->
  <g
     id="g4138"
     transform="matrix(0.95617637,0,0,0.95617637,9.2625205,74.276227)"
     style="stroke-width:10.45832162;stroke-miterlimit:4;stroke-dasharray:none">
    <title
       id="title4140">Layer 1</title>
    <path
       id="svg_1"
       d="m 96.768211,4.998325 386.880989,0 0,0 c 50.68283,0 91.77158,43.205357 91.77158,96.503295 0,53.28903 -41.08875,96.49589 -91.77158,96.49589 l -386.880989,0 0,0 c -50.680702,0 -91.766739,-43.20686 -91.766739,-96.49589 0,-53.297938 41.086037,-96.503295 91.766739,-96.503295 z"
       inkscape:connector-curvature="0"
       style="fill:#ffffb5;stroke:#000000;stroke-width:10.45832162;stroke-miterlimit:4;stroke-dasharray:none" />
  </g>
  <path
     style="fill:none;fill-rule:evenodd;stroke:none;stroke-width:1px;stroke-linecap:butt;stroke-linejoin:miter;stroke-opacity:1"
     d="m 35,88 45,-22 416,-3 49,35 23,51 -3,59 -24,44 -53,28 L 73,280 19,243 3,208 3,136 35,88"
     id="PapyrusPath"
     inkscape:connector-curvature="0"
     inkscape:label="#path4143"
     sodipodi:nodetypes="ccccccccccccc" />
</svg>
