<?xml version="1.0" encoding="UTF-8" standalone="no"?>
<svg
   xmlns:dc="http://purl.org/dc/elements/1.1/"
   xmlns:cc="http://creativecommons.org/ns#"
   xmlns:rdf="http://www.w3.org/1999/02/22-rdf-syntax-ns#"
   xmlns:svg="http://www.w3.org/2000/svg"
   xmlns="http://www.w3.org/2000/svg"
   xmlns:sodipodi="http://sodipodi.sourceforge.net/DTD/sodipodi-0.dtd"
   xmlns:inkscape="http://www.inkscape.org/namespaces/inkscape"
   width="521"
   height="360"
   id="svg4151"
   version="1.1"
   inkscape:version="0.91 r13725"
   sodipodi:docname="Device.svg">
  <metadata
     id="metadata4163">
    <rdf:RDF>
      <cc:Work
         rdf:about="">
        <dc:format>image/svg+xml</dc:format>
        <dc:type
           rdf:resource="http://purl.org/dc/dcmitype/StillImage" />
      </cc:Work>
    </rdf:RDF>
  </metadata>
  <defs
     id="defs4161" />
  <sodipodi:namedview
     pagecolor="#ffffff"
     bordercolor="#666666"
     borderopacity="1"
     objecttolerance="10"
     gridtolerance="10"
     guidetolerance="10"
     inkscape:pageopacity="0"
     inkscape:pageshadow="2"
     inkscape:window-width="1366"
     inkscape:window-height="706"
     id="namedview4159"
     showgrid="false"
     inkscape:zoom="1"
     inkscape:cx="290.5"
     inkscape:cy="180"
     inkscape:window-x="-8"
     inkscape:window-y="-8"
     inkscape:window-maximized="1"
     inkscape:current-layer="svg4151" />
  <!-- Created with SVG-edit - http://svg-edit.googlecode.com/ -->
  <g
     id="g4153"
     transform="matrix(0.99174887,0,0,0.99174887,-0.7010154,3.9999845)"
     style="stroke:#000000;stroke-opacity:1">
    <title
       id="title4155">Layer 1</title>
    <path
       d="m 30.193066,54.279938 0,0 c 0,-27.218903 23.550354,-49.281799 52.600079,-49.281799 l 23.909265,0 0,0 114.76526,0 215.18355,0 c 13.95105,0 27.33071,5.191345 37.19442,14.432129 9.86365,9.243973 15.40671,21.777893 15.40671,34.84967 l 0,123.201902 0,0 0,73.92148 0,0 c 0,27.21561 -23.55002,49.28131 -52.60113,49.28131 l -215.18355,0 -114.92562,-0.69 1.16036,0.19 -24.909264,0.5 c -29.049725,0 -52.600079,-22.0657 -52.600079,-49.28131 l 0,0 0,-73.92148 0,0 0,-123.201902 z"
       id="svg_3"
       inkscape:connector-curvature="0"
       style="fill:#b5ffb5;stroke:#000000;stroke-width:10;stroke-linecap:round;stroke-linejoin:round;stroke-opacity:1" />
    <path
       d="m 4.998262,354.5557 95.818408,-54.00272 319.38496,0 95.81833,54.00272 -511.021706,0 8e-6,0 z"
       id="svg_5"
       inkscape:connector-curvature="0"
       style="fill:#b5ffb5;stroke:#000000;stroke-width:10;stroke-linecap:round;stroke-linejoin:round;stroke-opacity:1" />
  </g>
  <path
     style="fill:none;fill-rule:evenodd;stroke:none;stroke-width:0.99567848px;stroke-linecap:butt;stroke-linejoin:miter;stroke-opacity:1"
     d="m 2.9978178,2.9978328 516.0043422,1.0084404 0,353.9622568 L 3.0325923,358.00215 2.9978178,2.9978328"
     id="PapyrusPath"
     inkscape:connector-curvature="0"
     inkscape:label="#path4705"
     sodipodi:nodetypes="ccccc" />
</svg>
