<?xml version="1.0" encoding="UTF-8" standalone="no"?>
<svg
   xmlns:dc="http://purl.org/dc/elements/1.1/"
   xmlns:cc="http://creativecommons.org/ns#"
   xmlns:rdf="http://www.w3.org/1999/02/22-rdf-syntax-ns#"
   xmlns:svg="http://www.w3.org/2000/svg"
   xmlns="http://www.w3.org/2000/svg"
   xmlns:sodipodi="http://sodipodi.sourceforge.net/DTD/sodipodi-0.dtd"
   xmlns:inkscape="http://www.inkscape.org/namespaces/inkscape"
   width="570"
   height="350"
   id="svg15292"
   version="1.1"
   inkscape:version="0.91 r13725"
   sodipodi:docname="InfrastructureService.svg">
  <metadata
     id="metadata15303">
    <rdf:RDF>
      <cc:Work
         rdf:about="">
        <dc:format>image/svg+xml</dc:format>
        <dc:type
           rdf:resource="http://purl.org/dc/dcmitype/StillImage" />
        <dc:title />
      </cc:Work>
    </rdf:RDF>
  </metadata>
  <defs
     id="defs15301" />
  <sodipodi:namedview
     pagecolor="#ffffff"
     bordercolor="#666666"
     borderopacity="1"
     objecttolerance="10"
     gridtolerance="10"
     guidetolerance="10"
     inkscape:pageopacity="0"
     inkscape:pageshadow="2"
     inkscape:window-width="1366"
     inkscape:window-height="706"
     id="namedview15299"
     showgrid="false"
     inkscape:zoom="1"
     inkscape:cx="388.5"
     inkscape:cy="101.5"
     inkscape:window-x="-8"
     inkscape:window-y="-8"
     inkscape:window-maximized="1"
     inkscape:current-layer="svg15292" />
  <!-- Created with SVG-edit - http://svg-edit.googlecode.com/ -->
  <g
     id="g15294"
     transform="matrix(0.97716203,0,0,1.0234977,0.12056155,70.290101)"
     style="stroke-width:10.35714436;stroke-miterlimit:4;stroke-dasharray:none">
    <title
       id="title15296">Layer 1</title>
    <path
       d="m 96.768211,4.998325 386.880989,0 0,0 c 50.68283,0 91.77158,43.205357 91.77158,96.503295 0,53.28903 -41.08875,96.49589 -91.77158,96.49589 l -386.880989,0 0,0 c -50.680702,0 -91.766739,-43.20686 -91.766739,-96.49589 0,-53.297938 41.086037,-96.503295 91.766739,-96.503295 z"
       id="svg_1"
       inkscape:connector-curvature="0"
       style="fill:#b5ffb5;stroke:#000000;stroke-width:10.35714436;stroke-miterlimit:4;stroke-dasharray:none" />
  </g>
  <path
     style="fill:none;fill-rule:evenodd;stroke:none;stroke-width:1px;stroke-linecap:butt;stroke-linejoin:miter;stroke-opacity:1"
     d="m 75,71 418,-2 54,38 20,47 0,49 -25,44 -52,33 L 72,278 24,249 2,209 2,141 27,94 Z"
     id="PapyrusPath"
     inkscape:connector-curvature="0"
     inkscape:label="#path5806"
     sodipodi:nodetypes="ccccccccccccc" />
</svg>
