<?xml version="1.0" encoding="UTF-8" standalone="no"?>
<svg
   xmlns:dc="http://purl.org/dc/elements/1.1/"
   xmlns:cc="http://creativecommons.org/ns#"
   xmlns:rdf="http://www.w3.org/1999/02/22-rdf-syntax-ns#"
   xmlns:svg="http://www.w3.org/2000/svg"
   xmlns="http://www.w3.org/2000/svg"
   xmlns:sodipodi="http://sodipodi.sourceforge.net/DTD/sodipodi-0.dtd"
   xmlns:inkscape="http://www.inkscape.org/namespaces/inkscape"
   width="350"
   height="350"
   id="svg5256"
   version="1.1"
   inkscape:version="0.91 r13725"
   sodipodi:docname="Meaning.svg">
  <metadata
     id="metadata5267">
    <rdf:RDF>
      <cc:Work
         rdf:about="">
        <dc:format>image/svg+xml</dc:format>
        <dc:type
           rdf:resource="http://purl.org/dc/dcmitype/StillImage" />
        <dc:title />
      </cc:Work>
    </rdf:RDF>
  </metadata>
  <defs
     id="defs5265" />
  <sodipodi:namedview
     pagecolor="#ffffff"
     bordercolor="#666666"
     borderopacity="1"
     objecttolerance="10"
     gridtolerance="10"
     guidetolerance="10"
     inkscape:pageopacity="0"
     inkscape:pageshadow="2"
     inkscape:window-width="1366"
     inkscape:window-height="706"
     id="namedview5263"
     showgrid="false"
     inkscape:zoom="0.5862069"
     inkscape:cx="-94.676469"
     inkscape:cy="155.5"
     inkscape:window-x="-8"
     inkscape:window-y="-8"
     inkscape:window-maximized="1"
     inkscape:current-layer="svg5256" />
  <!-- Created with SVG-edit - http://svg-edit.googlecode.com/ -->
  <g
     id="g5258"
     transform="matrix(0.6853942,0,0,0.6853942,6.8237467,61.16085)"
     style="stroke-width:14.4456768;stroke-miterlimit:4;stroke-dasharray:none">
    <title
       id="title5260">Layer 1</title>
    <path
       d="m 299.4754,5.257071 c -1.04333,0.027895 -2.06155,0.100586 -3.11337,0.185152 -16.84509,1.373964 -31.71668,10.116993 -39.26917,23.14637 l -4.00509,9.859383 c 0.86539,-3.416626 2.19363,-6.729614 4.00509,-9.859383 C 243.62289,17.173642 224.7139,11.904622 206.02829,14.377482 187.34866,16.848649 171.12294,26.762005 162.25563,41.13295 137.22485,28.523117 106.02144,29.287514 81.879929,43.124619 57.7379,56.958611 44.875931,81.457146 48.783066,106.17235 l 2.560867,10.04538 c -1.155441,-3.29232 -2.02121,-6.63935 -2.560867,-10.04538 l -0.38623,0.92613 c -20.985146,1.8702 -38.194145,15.18457 -42.663223,33.00482 -4.471054,17.82004 4.822159,36.10555 23.028374,45.319 l 28.419746,5.6489 c -9.923309,0.66585 -19.832611,-1.30164 -28.419746,-5.6489 -14.040375,12.86411 -17.272064,31.90695 -8.0112,47.63426 9.264282,15.72728 29.039482,24.78258 49.451118,22.72808 l 12.403107,-2.68494 c -3.991714,1.36609 -8.137222,2.25613 -12.403107,2.68494 11.579971,17.44149 30.790055,30.16513 53.340395,35.22766 22.55128,5.06256 46.49763,2.07049 66.4675,-8.28558 16.29388,21.01129 45.20929,32.04803 74.20199,28.32995 28.99613,-3.7179 52.91388,-21.54626 61.40683,-45.73553 l 2.95099,-13.51816 c -0.44491,4.59341 -1.40036,9.10751 -2.95099,13.51816 19.94376,10.69558 45.0289,11.29806 65.63895,1.57373 20.60312,-9.72538 33.45959,-28.26931 33.65112,-48.46692 l -7.38836,-30.17678 -29.10444,-20.41938 c 22.50681,11.52903 36.69513,29.09317 36.4928,50.59616 26.75373,0.22859 49.48133,-18.52126 59.68341,-40.04291 10.19623,-21.51944 6.33985,-46.05278 -10.12603,-64.48266 6.83142,-13.72124 6.42785,-29.328956 -1.11365,-42.773498 -7.53107,-13.44223 -21.43469,-23.434906 -38.15283,-27.35688 -3.745,-17.817764 -19.16431,-32.151203 -39.54993,-36.846718 -20.38345,-4.698221 -42.08795,1.093948 -55.73554,14.904305 l -8.28576,11.433365 c 2.1159,-4.133797 4.88327,-7.987759 8.28576,-11.433365 C 330.29773,10.974935 315.20572,4.851216 299.4754,5.257072 l 0,0 0,-2e-6 z"
       id="svg_1"
       transform="matrix(-0.99556525,-0.09407356,0.09407356,-0.99556525,478.82374,339.58038)"
       inkscape:connector-curvature="0"
       style="fill:#ffffb5;stroke:#000000;stroke-width:14.4456768;stroke-linecap:round;stroke-linejoin:round;stroke-miterlimit:4;stroke-dasharray:none" />
  </g>
  <path
     style="fill:none;fill-rule:evenodd;stroke:none;stroke-width:1px;stroke-linecap:butt;stroke-linejoin:miter;stroke-opacity:1"
     d="m 81.882352,73.647061 44.352948,5.117647 42.64705,-30.705882 58,18.764705 54.58824,8.529412 28.99999,27.294117 22.17647,5.11765 8.52941,29 -1.70588,29 6.82353,30.70588 -6.82353,23.88235 -18.7647,5.11765 -13.64706,32.41176 -32.41176,20.47059 -39.2353,5.11765 -5.11764,-11.94118 -23.88236,8.52941 L 174,286.88235 160.35294,274.94118 129.64706,286.88236 104.05882,274.94118 66.529411,278.35294 30.705882,259.58824 23.882353,240.82353 11.941176,225.47059 5.117647,184.52941 10.235294,128.2353 51.17647,106.05882 81.882352,73.647061"
     id="PapyrusPath"
     inkscape:connector-curvature="0"
     inkscape:label="#path4143"
     sodipodi:nodetypes="ccccccccccccccccccccccccccccc" />
</svg>
